<?xml version="1.0" standalone="no"?>
<!DOCTYPE svg PUBLIC "-//W3C//DTD SVG 20010904//EN"
 "http://www.w3.org/TR/2001/REC-SVG-20010904/DTD/svg10.dtd">
<svg version="1.0" xmlns="http://www.w3.org/2000/svg"
 width="1280.000000pt" height="640.000000pt" viewBox="0 0 1280.000000 640.000000"
 preserveAspectRatio="xMidYMid meet">
<g transform="translate(0.000000,640.000000) scale(0.100000,-0.100000)"
fill="#000000" stroke="none">
<path d="M12575 4684 c-1753 -688 -3482 -1097 -5196 -1228 -464 -36 -615 -41
-1239 -41 -624 0 -806 6 -1255 40 -1499 116 -3050 446 -4572 974 -144 50 -266
91 -272 91 -40 0 16 -25 204 -90 127 -44 217 -81 220 -90 5 -13 128 -747 271
-1619 24 -151 46 -276 48 -278 1 -2 293 318 647 711 354 393 650 717 658 720
7 4 74 -8 149 -26 129 -31 135 -34 147 -63 7 -16 131 -435 275 -930 145 -495
267 -904 271 -908 3 -5 255 345 558 777 304 432 556 788 560 790 9 6 301 -26
416 -45 58 -10 66 -13 46 -20 -13 -5 -21 -15 -18 -22 68 -178 734 -1766 740
-1764 4 1 217 380 472 842 l464 840 -57 7 c-31 3 -88 10 -127 14 l-70 8 55 7
c30 4 191 7 357 8 l302 1 482 -845 c266 -465 486 -845 489 -845 6 0 710 1770
710 1786 0 7 -35 10 -107 7 -164 -5 -101 10 261 62 307 44 320 45 336 28 10
-10 268 -349 575 -753 306 -404 565 -743 575 -754 17 -18 18 -18 24 0 18 58
466 1841 466 1855 0 25 14 31 189 79 151 41 155 41 177 23 12 -10 314 -325
670 -700 357 -375 650 -681 651 -679 3 3 121 848 213 1526 28 206 55 384 60
396 6 15 54 38 184 89 161 62 195 79 184 90 -2 2 -89 -30 -193 -71z"/>
</g>
</svg>
